<svg id="Layer_1" data-name="Layer 1" xmlns="http://www.w3.org/2000/svg" viewBox="0 0 352.87 352.39"><defs><style>.cls-1{fill:#fff;}</style></defs><path d="M780.51,535.11c2.17-99.74,79.93-176.18,177.16-175.88,96.27.29,175.94,76.76,175.72,176.17-.23,100.28-79.37,176.49-176.72,176.21C857.91,711.33,782.7,634,780.51,535.11Zm201.56-32.5,1.79-.46a36.94,36.94,0,0,1,2.21,4.74q7.15,23.6,14.15,47.25a19.84,19.84,0,0,1,.64,4.93c.31,10.15.6,20.3.79,30.46.31,17,.61,34,.76,51,.07,7.47,0,15-.42,22.4-.29,5.11-1.63,10.17-1.9,15.28-.29,5.61,1.4,6.67,6.5,4.73,5.29-2,10.45-4.38,15.79-6.22,4.45-1.54,5.08-4.46,4.41-8.56-.89-5.4-1.93-10.86-2-16.31-.36-21.82-.38-43.64-.55-65.47-.29-38.48-.66-77-.86-115.44q-.11-17.47.54-34.95c.42-11,1.34-21.93,2-32.89.21-3.37-1-5.73-4.36-7-4.34-1.66-8.52-3.88-13-5.15-2.63-.76-6.71-1.27-8.21.15s-1.44,5.49-1.13,8.28c.53,4.76,2.53,9.43,2.59,14.15.22,16.83-.09,33.66-.28,50.48a64.09,64.09,0,0,1-.78,6.88l-1.29.06c-.81-1.77-1.77-3.48-2.39-5.3-2.5-7.4-5-14.8-7.32-22.25-5.58-17.72-10.09-35.56-6-54.37.67-3.13-1.08-4.76-4-5-6.13-.53-12.27-.92-18.4-1.35-4.44-.31-5.28,1.95-4.79,5.94a156.86,156.86,0,0,1,1.38,18.35c.32,60.82.77,121.63.62,182.45-.08,32.39,3.31,64.89-2.27,97.16-.52,3,1,4.75,4.32,4.47,6-.51,12-.77,17.91-1.54,5.76-.74,6.17-2.1,5.22-8-1.21-7.51-2.51-15.1-2.59-22.67-.2-17.15.43-34.3.54-51.45.21-33.16.29-66.31.43-99.47ZM802.31,536.26c1.58,52.29,22.62,94.43,64.68,125.79,4.92,3.67,6.86,3.15,8.89-2.74a96.83,96.83,0,0,0,2.78-11.1c3.11-14.09,7.48-28.06,8.94-42.33,2.61-25.48-5.51-47.59-25.51-64.5-3.5-3-3.8-4.83-.06-8.12,21.4-18.85,28.55-43.34,25-70.68-2.1-16.16-7.09-31.94-10.81-47.89-1.8-7.71-3.25-8.33-9.48-3.67C824.87,442.28,804,484.31,802.31,536.26ZM1039.2,667.05c2.07-1.12,3-1.52,3.79-2,90.21-59,91.61-194.37,2.6-255.27-1.24-.85-2.91-1.06-4.38-1.57-.41,1.54-1.26,3.11-1.16,4.62.52,7.45,1.89,14.87,1.88,22.31-.13,56.44-.3,112.89-.91,169.33-.2,18.58,1.56,37.3-2.58,55.74C1038,662,1038.85,664.18,1039.2,667.05ZM920,607.11q0-23.24,0-46.48c0-13.68,0-13.68,13.25-10.86,5.94,1.26,9.41-1.25,9.75-7.35a106.57,106.57,0,0,0,0-12c-.39-6.64-4.73-9-10.61-5.94-10.57,5.48-12.33,4.48-12.35-7.4q-.09-48.23,0-96.45a45.33,45.33,0,0,1,.94-8.92c1.27-6.2,4.19-7.87,10.45-6.59A110.88,110.88,0,0,0,942.74,407c3.49.33,5.41-1.75,5.27-5.12a66.59,66.59,0,0,0-1.33-11.37c-1.31-6-3.86-7.7-10-7A150.37,150.37,0,0,0,897.26,394c-4.57,1.86-5.43,4.72-4,9.1,1.28,3.92,2.74,7.94,3,12,.59,8.3.57,16.64.58,25,.07,67.13,0,134.26.2,201.4,0,10.09.09,19.91-6,28.69-2.25,3.24-1.28,5.62,2.63,7.32a169,169,0,0,0,42,12.14c4.77.73,8-.68,9.87-4.65a32.59,32.59,0,0,0,3.23-10.36c.87-8.14-1.71-10.14-9.85-8.54-3.57.7-7.15,1.75-10.75,1.87-6.38.21-8.25-1.94-8.25-8.33Q920,633.34,920,607.11Z" transform="translate(-780.51 -359.23)"/><path class="cls-1" d="M982.07,502.61v5.21c-.14,33.16-.22,66.31-.43,99.47-.11,17.15-.74,34.3-.54,51.45.08,7.57,1.38,15.16,2.59,22.67.95,5.94.54,7.3-5.22,8-5.94.77-11.94,1-17.91,1.54-3.3.28-4.84-1.44-4.32-4.47,5.58-32.27,2.19-64.77,2.27-97.16.15-60.82-.3-121.63-.62-182.45a156.86,156.86,0,0,0-1.38-18.35c-.49-4,.35-6.25,4.79-5.94,6.13.43,12.27.82,18.4,1.35,3,.26,4.71,1.89,4,5-4,18.81.47,36.65,6,54.37,2.34,7.45,4.82,14.85,7.32,22.25.62,1.82,1.58,3.53,2.39,5.3l1.29-.06a64.09,64.09,0,0,0,.78-6.88c.19-16.82.5-33.65.28-50.48-.06-4.72-2.06-9.39-2.59-14.15-.31-2.79-.47-6.77,1.13-8.28s5.58-.91,8.21-.15c4.45,1.27,8.63,3.49,13,5.15,3.31,1.27,4.57,3.63,4.36,7-.7,11-1.62,21.92-2,32.89q-.66,17.46-.54,34.95c.2,38.48.57,77,.86,115.44.17,21.83.19,43.65.55,65.47.1,5.45,1.14,10.91,2,16.31.67,4.1,0,7-4.41,8.56-5.34,1.84-10.5,4.21-15.79,6.22-5.1,1.94-6.79.88-6.5-4.73.27-5.11,1.61-10.17,1.9-15.28.43-7.45.49-14.93.42-22.4-.15-17-.45-34-.76-51-.19-10.16-.48-20.31-.79-30.46a19.84,19.84,0,0,0-.64-4.93q-7-23.64-14.15-47.25a36.94,36.94,0,0,0-2.21-4.74Z" transform="translate(-780.51 -359.23)"/><path class="cls-1" d="M802.31,536.26c1.65-51.95,22.56-94,64.43-125.24,6.23-4.66,7.68-4,9.48,3.67,3.72,15.95,8.71,31.73,10.81,47.89,3.55,27.34-3.6,51.83-25,70.68-3.74,3.29-3.44,5.16.06,8.12,20,16.91,28.12,39,25.51,64.5-1.46,14.27-5.83,28.24-8.94,42.33a96.83,96.83,0,0,1-2.78,11.1c-2,5.89-4,6.41-8.89,2.74C824.93,630.69,803.89,588.55,802.31,536.26Zm65.18-67.69c-1.13-4.12-2.63-10.71-4.8-17.08-1.17-3.45-3.72-4.66-6.64-1.11-1.47,1.79-3.18,3.4-4.67,5.19-15.56,18.79-23.45,40.7-26.32,64.66-.48,4,1.52,5.63,4.89,4.34,5.83-2.21,12.16-4.11,16.93-7.86C861.43,505.28,865.83,488.87,867.49,468.57ZM825,555.21c0,.46.1,1.79.26,3.11s.48,2.62.62,3.94c2.49,23.72,13.27,43.23,30.33,59.51,3.45,3.3,5,2.84,6.69-1.63a56.37,56.37,0,0,0-20-65.59,38.31,38.31,0,0,0-11.68-5.32C826.16,547.83,824.88,549.22,825,555.21Z" transform="translate(-780.51 -359.23)"/><path class="cls-1" d="M1039.2,667.05c-.35-2.87-1.18-5-.76-6.89,4.14-18.44,2.38-37.16,2.58-55.74.61-56.44.78-112.89.91-169.33,0-7.44-1.36-14.86-1.88-22.31-.1-1.51.75-3.08,1.16-4.62,1.47.51,3.14.72,4.38,1.57,89,60.9,87.61,196.22-2.6,255.27C1042.17,665.53,1041.27,665.93,1039.2,667.05Zm25.7-131.63h0c0,21.65-.1,43.31.1,65,0,3,1.48,6.1,2.27,9.15,2.25-2.18,5.19-4,6.64-6.59,23.2-41.92,23.26-84.57,3.47-127.68a79.25,79.25,0,0,0-6.67-11.1c-.72-1.06-2.34-1.51-3.55-2.24A41.09,41.09,0,0,0,1065,466a7,7,0,0,0-.1,2.48Z" transform="translate(-780.51 -359.23)"/><path class="cls-1" d="M920,607.11q0,26.24,0,52.48c0,6.39,1.87,8.54,8.25,8.33,3.6-.12,7.18-1.17,10.75-1.87,8.14-1.6,10.72.4,9.85,8.54A32.59,32.59,0,0,1,945.64,685c-1.89,4-5.1,5.38-9.87,4.65a169,169,0,0,1-42-12.14c-3.91-1.7-4.88-4.08-2.63-7.32,6.08-8.78,6-18.6,6-28.69-.19-67.14-.13-134.27-.2-201.4,0-8.33,0-16.67-.58-25-.29-4.05-1.75-8.07-3-12-1.44-4.38-.58-7.24,4-9.1a150.37,150.37,0,0,1,39.38-10.49c6.18-.72,8.73,1,10,7A66.59,66.59,0,0,1,948,401.85c.14,3.37-1.78,5.45-5.27,5.12a110.88,110.88,0,0,1-11.28-1.84c-6.26-1.28-9.18.39-10.45,6.59a45.33,45.33,0,0,0-.94,8.92q-.09,48.23,0,96.45c0,11.88,1.78,12.88,12.35,7.4,5.88-3,10.22-.7,10.61,5.94a106.57,106.57,0,0,1,0,12c-.34,6.1-3.81,8.61-9.75,7.35C920,547,920,547,920,560.63Q920,583.88,920,607.11Z" transform="translate(-780.51 -359.23)"/><path d="M867.49,468.57c-1.66,20.3-6.06,36.71-20.61,48.14-4.77,3.75-11.1,5.65-16.93,7.86-3.37,1.29-5.37-.34-4.89-4.34,2.87-24,10.76-45.87,26.32-64.66,1.49-1.79,3.2-3.4,4.67-5.19,2.92-3.55,5.47-2.34,6.64,1.11C864.86,457.86,866.36,464.45,867.49,468.57Z" transform="translate(-780.51 -359.23)"/><path d="M825,555.21c-.08-6,1.2-7.38,6.19-6a38.31,38.31,0,0,1,11.68,5.32,56.37,56.37,0,0,1,20,65.59c-1.65,4.47-3.24,4.93-6.69,1.63-17.06-16.28-27.84-35.79-30.33-59.51-.14-1.32-.46-2.62-.62-3.94S825,555.67,825,555.21Z" transform="translate(-780.51 -359.23)"/><path d="M1064.9,535.42V468.48a7,7,0,0,1,.1-2.48,41.09,41.09,0,0,1,2.19-4.08c1.21.73,2.83,1.18,3.55,2.24a79.25,79.25,0,0,1,6.67,11.1c19.79,43.11,19.73,85.76-3.47,127.68-1.45,2.62-4.39,4.41-6.64,6.59-.79-3-2.24-6.1-2.27-9.15-.2-21.65-.1-43.31-.1-65Z" transform="translate(-780.51 -359.23)"/></svg>